<svg xmlns="http://www.w3.org/2000/svg"  viewBox="0 0 64 64" width="20px" height="20px"><linearGradient id="zNC~zQckgiOMwt1POMad9a" x1="32" x2="32" y1="10" y2="58.29" gradientUnits="userSpaceOnUse" spreadMethod="reflect"><stop offset="0" stop-color="#1a6dff"/><stop offset="1" stop-color="#c822ff"/></linearGradient><path fill="none" stroke="url(#zNC~zQckgiOMwt1POMad9a)" stroke-miterlimit="10" stroke-width="2" d="M53,11H11c-1.1,0-2,0.9-2,2v31.985 c0,1.1,0.9,2,2,2h5V56l9.727-9.015H53c1.1,0,2-0.9,2-2V13C55,11.9,54.1,11,53,11z"/><linearGradient id="zNC~zQckgiOMwt1POMad9b" x1="17.005" x2="17.005" y1="23" y2="26" gradientUnits="userSpaceOnUse" spreadMethod="reflect"><stop offset="0" stop-color="#6dc7ff"/><stop offset="1" stop-color="#e6abff"/></linearGradient><path fill="url(#zNC~zQckgiOMwt1POMad9b)" d="M18.26 26L15.75 26 17 23z"/><linearGradient id="zNC~zQckgiOMwt1POMad9c" x1="17" x2="17" y1="28" y2="35" gradientUnits="userSpaceOnUse" spreadMethod="reflect"><stop offset="0" stop-color="#6dc7ff"/><stop offset="1" stop-color="#e6abff"/></linearGradient><path fill="url(#zNC~zQckgiOMwt1POMad9c)" d="M22 35L12 35 14.92 28 19.09 28 19.28 28.45z"/><linearGradient id="zNC~zQckgiOMwt1POMad9d" x1="47.01" x2="47.01" y1="23" y2="26" gradientUnits="userSpaceOnUse" spreadMethod="reflect"><stop offset="0" stop-color="#6dc7ff"/><stop offset="1" stop-color="#e6abff"/></linearGradient><path fill="url(#zNC~zQckgiOMwt1POMad9d)" d="M50.47,26h-6.92c0.68-1.79,1.97-3,3.45-3S49.77,24.21,50.47,26z"/><linearGradient id="zNC~zQckgiOMwt1POMad9e" x1="47" x2="47" y1="28" y2="35" gradientUnits="userSpaceOnUse" spreadMethod="reflect"><stop offset="0" stop-color="#6dc7ff"/><stop offset="1" stop-color="#e6abff"/></linearGradient><path fill="url(#zNC~zQckgiOMwt1POMad9e)" d="M51,29c0,3.32-1.79,6-4,6s-4-2.68-4-6c0-0.19,0-0.83,0.02-1h7.96C51,28.17,51,28.81,51,29z"/><linearGradient id="zNC~zQckgiOMwt1POMad9f" x1="27" x2="27" y1="28" y2="35" gradientUnits="userSpaceOnUse" spreadMethod="reflect"><stop offset="0" stop-color="#6dc7ff"/><stop offset="1" stop-color="#e6abff"/></linearGradient><path fill="url(#zNC~zQckgiOMwt1POMad9f)" d="M31,29c0,3.32-1.79,6-4,6s-4-2.68-4-6c0-0.19,0.01-0.83,0.02-1h7.96 C30.99,28.17,31,28.81,31,29z"/><linearGradient id="zNC~zQckgiOMwt1POMad9g" x1="27" x2="27" y1="23" y2="26" gradientUnits="userSpaceOnUse" spreadMethod="reflect"><stop offset="0" stop-color="#6dc7ff"/><stop offset="1" stop-color="#e6abff"/></linearGradient><path fill="url(#zNC~zQckgiOMwt1POMad9g)" d="M23 23H31V26H23z"/><linearGradient id="zNC~zQckgiOMwt1POMad9h" x1="37.5" x2="37.5" y1="23" y2="26" gradientUnits="userSpaceOnUse" spreadMethod="reflect"><stop offset="0" stop-color="#6dc7ff"/><stop offset="1" stop-color="#e6abff"/></linearGradient><path fill="url(#zNC~zQckgiOMwt1POMad9h)" d="M33.5 23H41.5V26H33.5z"/><linearGradient id="zNC~zQckgiOMwt1POMad9i" x1="37.5" x2="37.5" y1="28" y2="35" gradientUnits="userSpaceOnUse" spreadMethod="reflect"><stop offset="0" stop-color="#6dc7ff"/><stop offset="1" stop-color="#e6abff"/></linearGradient><path fill="url(#zNC~zQckgiOMwt1POMad9i)" d="M36 28H39V35H36z"/></svg>