<?xml version="1.0" standalone="no"?>
<!DOCTYPE svg PUBLIC "-//W3C//DTD SVG 20010904//EN"
 "http://www.w3.org/TR/2001/REC-SVG-20010904/DTD/svg10.dtd">
<svg version="1.0" xmlns="http://www.w3.org/2000/svg"
 width="225.000000pt" height="225.000000pt" viewBox="0 0 225.000000 225.000000"
 preserveAspectRatio="xMidYMid meet">
<metadata>
Created by potrace 1.16, written by Peter Selinger 2001-2019
</metadata>
<g transform="translate(0.000000,225.000000) scale(0.100000,-0.100000)"
fill="#000000" stroke="none">
<path d="M1010 2240 c-147 -16 -262 -51 -400 -121 -537 -275 -757 -930 -495
-1476 24 -51 63 -120 86 -155 42 -61 198 -232 206 -224 2 2 13 57 24 122 30
173 45 198 164 257 57 28 162 63 170 56 2 -3 -20 -120 -50 -260 -30 -139 -57
-272 -60 -294 l-7 -40 74 -27 c209 -79 413 -95 633 -52 84 17 245 71 244 82 0
4 -26 137 -58 297 -32 160 -57 292 -55 293 5 7 120 -30 169 -55 119 -61 136
-87 164 -257 10 -64 21 -119 23 -122 8 -8 163 159 207 224 260 383 260 891 0
1273 -55 81 -167 198 -248 260 -128 96 -324 182 -476 208 -90 15 -231 20 -315
11z m186 -638 c42 -35 157 -93 222 -113 40 -12 42 -14 42 -52 l0 -39 20 23
c20 24 20 24 36 4 33 -41 -2 -221 -45 -232 -11 -3 -26 -23 -37 -51 -24 -64
-59 -119 -107 -169 -39 -41 -40 -45 -45 -121 -2 -44 0 -87 5 -97 7 -12 1 -56
-23 -154 -134 -558 -134 -555 -140 -549 -7 8 -102 392 -114 463 -6 39 -19 95
-28 125 -11 37 -16 94 -17 171 l0 115 -48 54 c-27 30 -65 89 -85 132 -20 43
-44 81 -53 83 -18 6 -31 34 -48 100 -15 57 -13 108 4 131 15 19 15 19 35 -5
l20 -23 0 39 c0 38 2 40 43 52 115 35 266 132 282 182 7 20 8 19 25 -8 10 -16
35 -44 56 -61z"/>
</g>
</svg>
